<?xml version="1.0" ?><!DOCTYPE svg  PUBLIC '-//W3C//DTD SVG 1.1//EN'  'http://www.w3.org/Graphics/SVG/1.1/DTD/svg11.dtd'><svg enable-background="new 0 0 60 60" height="60px" id="Layer_1" version="1.1" viewBox="0 0 60 60" width="60px" xml:space="preserve" xmlns="http://www.w3.org/2000/svg" xmlns:xlink="http://www.w3.org/1999/xlink"><g><path d="M51.449,48.952H9.338c-2.048,0-3.714-1.666-3.714-3.714V16.584c0-2.048,1.667-3.714,3.714-3.714h42.111   c2.048,0,3.713,1.666,3.713,3.714v28.654C55.162,47.286,53.497,48.952,51.449,48.952z M9.338,15.07   c-0.835,0-1.514,0.679-1.514,1.514v28.654c0,0.835,0.679,1.515,1.514,1.515h42.111c0.834,0,1.514-0.68,1.514-1.515V16.584   c0-0.834-0.68-1.514-1.514-1.514H9.338z"/></g><g><rect height="22.381" width="2.2" x="12.093" y="19.72"/></g><g><rect height="22.381" width="2.2" x="16.818" y="19.72"/></g><g><rect height="22.381" width="2.2" x="21.465" y="19.72"/></g><g><rect height="22.381" width="2.2" x="24.826" y="19.72"/></g><g><rect height="22.381" width="2.199" x="31.091" y="19.72"/></g><g><rect height="22.381" width="2.199" x="33.735" y="19.72"/></g><g><rect height="22.381" width="2.199" x="38.074" y="19.72"/></g><g><rect height="22.381" width="2.199" x="43.208" y="19.72"/></g><g><rect height="22.381" width="2.199" x="47.213" y="19.72"/></g></svg>